<svg width="14" height="14" viewBox="0 0 14 14" fill="none" xmlns="http://www.w3.org/2000/svg">
<path d="M11.9498 9.05023C11.1873 8.28784 10.2799 7.72343 9.28975 7.38177C10.3502 6.65139 11.0469 5.42905 11.0469 4.04688C11.0469 1.81543 9.23145 0 7.00001 0C4.76857 0 2.95313 1.81543 2.95313 4.04688C2.95313 5.42905 3.64982 6.65139 4.7103 7.38177C3.72018 7.72343 2.8127 8.28784 2.05027 9.05023C0.857762 10.2428 0.148486 11.7898 0.0208768 13.4536C-0.00221956 13.7548 0.244853 14 0.546883 14C0.848914 14 1.0911 13.7544 1.11882 13.4536C1.39541 10.452 3.92748 8.09375 7.00001 8.09375C10.0725 8.09375 12.6046 10.452 12.8812 13.4536C12.9089 13.7544 13.1511 14 13.4531 14C13.7552 14 14.0022 13.7548 13.9791 13.4536C13.8515 11.7898 13.1423 10.2428 11.9498 9.05023ZM7.00001 7C5.37166 7 4.04688 5.67525 4.04688 4.04688C4.04688 2.4185 5.37166 1.09375 7.00001 1.09375C8.62836 1.09375 9.95313 2.4185 9.95313 4.04688C9.95313 5.67525 8.62836 7 7.00001 7Z" fill="#7F878B"/>
</svg>
