<svg width="33" height="45" viewBox="0 0 33 45" fill="none" xmlns="http://www.w3.org/2000/svg">
<path fill-rule="evenodd" clip-rule="evenodd" d="M4.20804 33.8233C-1.54287 23.8624 1.37986 2.41685 1.50719 1.5095C1.63454 0.593555 2.69767 -0.0202434 3.55489 0.327262C4.40433 0.67067 24.438 8.86213 30.189 18.8232C34.0901 25.58 32.1263 34.0615 25.9653 38.5075L28.2917 42.5368C28.7062 43.2548 28.4605 44.1713 27.7425 44.5859C27.0245 45.0004 26.1079 44.755 25.6934 44.037L23.367 40.0076C16.4362 43.1202 8.10909 40.5801 4.20804 33.8233ZM6.80601 32.3233C9.87978 37.6473 16.3775 39.7084 21.8668 37.4092L18.5542 31.6716L5.63411 29.7035C5.9727 30.6474 6.35286 31.5385 6.80601 32.3233ZM4.7365 26.5306L16.633 28.3439L12.545 21.2633L3.82298 19.7553C3.97761 22.0896 4.26824 24.3976 4.7365 26.5306ZM3.68992 16.6866L10.5918 17.8803L4.00966 6.47968C3.79131 9.19821 3.60232 12.8586 3.68992 16.6866ZM15.607 9.8063C12.3358 7.81633 9.07112 6.14991 6.60779 4.97965L13.1899 16.3803L15.607 9.8063ZM18.1983 11.456L15.1432 19.7634L19.2313 26.8438L23.6092 15.6346C21.996 14.1627 20.1424 12.7568 18.1983 11.456ZM25.9077 17.9983L21.1523 30.1715L24.465 35.9092C29.2006 32.305 30.6644 25.6471 27.5906 20.3231C27.1376 19.5384 26.556 18.7636 25.9077 17.9983Z" fill="#40BF6A"/>
</svg>
